<svg height="192" viewBox="0 0 192 192" width="192" xmlns="http://www.w3.org/2000/svg"><g transform="matrix(1 0 0 -1 6 123.765538)"><path d="m57.2238806 50.7162791c-2.1492537-2.9674419-5.5074627-5.3953489-8.7313433-6.3395349-4.5671642-1.3488372-6.5820895-1.0790698-16.2537313 2.0232558-7.119403 2.2930233-13.8358209 3.5069767-19.477612 3.5069767-11.95522385 0-12.761194-.5395348-12.761194-7.688372 0-5.6651163.13432836-5.9348838 3.08955224-4.9906977 5.7761194 1.8883721 18.94029846.944186 26.19402986-2.0232558 9.1343283-3.6418605 20.1492537-3.7767442 27-.1348838 4.8358209 2.427907 12.2238806 9.7116279 12.2238806 12.0046512 0 .5395349-1.7462687 2.6976744-3.761194 4.7209302l-3.8955224 3.6418605z"/><path d="m123.044776 48.4232558c-8.059701-1.8883721-20.014925-8.9023256-26.3283581-15.3767442l-5.9104478-6.0697674 3.8955224-4.0465116 3.7611941-4.0465117 6.3134324 5.9348838c9.402985 8.9023255 16.38806 12.0046511 28.477612 12.6790697 8.597015.5395349 11.820896 0 20.417911-2.9674418 11.283582-3.9116279 13.970149-4.1813954 21.358209-2.0232559l4.970149 1.3488373v7.4186046 7.4186047l-3.492537-2.6976745c-4.701493-3.6418604-9.671642-3.5069767-22.432836.5395349-10.880597 3.5069768-21.358209 4.1813954-31.029851 1.8883721z"/><path d="m66.6268657 41.0046512c-4.5671642-5.8-15.5820896-11.3302326-22.4328358-11.3302326-2.6865672 0-9.5373135 1.4837209-15.1791045 3.372093-10.7462687 3.5069768-19.74626868 4.3162791-25.52238809 2.0232558-3.08955223-1.0790697-3.49253731-2.0232558-3.49253731-7.4186046 0-5.9348837 0-5.9348837 3.49253731-4.7209302 5.64179105 2.1581395 15.58208959 1.4837209 23.37313429-1.6186047 10.2089553-4.0465116 23.9104478-4.0465116 32.9104478.1348837 6.7164179 2.9674419 18.1343284 12.8139535 18.1343284 15.6465117 0 .8093023-1.6119403 3.1023255-3.7611941 5.1255814l-3.6268656 3.5069767z"/><path d="m124.253731 34.5302326c-7.388059-2.2930233-10.746268-4.3162791-16.925373-9.8465117-6.179104-5.5302325-6.447761-7.6883721-1.746268-12.0046511l3.358209-3.23720933 4.432835 4.72093023c9.671642 10.2511628 22.432836 12.544186 37.611941 6.744186 8.865671-3.372093 16.791044-4.1813953 24.850746-2.5627907 4.029851.8093024 4.164179 1.2139535 4.164179 7.5534884 0 6.0697675-.134328 6.4744186-2.552239 5.1255814-4.432836-2.2930232-15.716418-1.4837209-26.19403 2.0232558-10.880597 3.6418605-18.671641 4.0465117-27 1.483721z"/><path d="m74.5522388 29.5395349c-12.4925373-12.9488372-30.2238806-16.5906977-48.8955224-10.1162791-11.2835821 3.9116279-13.1641791 4.1813954-20.41791043 1.8883721l-5.23880597-1.4837209v-7.283721-7.28372088l3.49253731 2.69767441c4.43283582 3.50697677 10.07462689 3.50697677 20.95522389.13488373 4.5671642-1.48372093 11.5522388-3.10232559 15.3134328-3.50697675 13.8358209-1.75348837 31.0298508 4.72093023 42.3134329 15.78139539l6.9850746 6.744186-3.8955224 4.0465116c-2.0149254 2.1581396-4.0298507 3.9116279-4.4328358 3.9116279s-3.2238806-2.4279069-6.1791045-5.5302325z"/><path d="m128.686567 21.5813953c-5.776119-1.7534883-12.626866-6.4744186-15.179104-10.2511627-2.149254-3.37209307-2.149254-3.64186051 1.477612-7.41860469l3.761194-3.91162791 4.835821 4.72093023c6.850746 6.74418607 11.955223 7.28372097 24.985074 2.83255814 8.597015-2.96744186 12.626866-3.50697674 20.686567-3.2372093l10.074627.40465116.402985 6.47441857c.402985 6.3395349.268657 6.4744186-2.686567 5.5302326-6.313433-2.0232558-17.865672-.9441861-28.208955 2.5627907-10.746269 3.7767442-14.104478 4.1813953-20.149254 2.2930232z"/></g></svg>